<svg xmlns="http://www.w3.org/2000/svg" version="1.0" width="449.000000pt" height="290.000000pt" viewBox="0 0 449.000000 290.000000" preserveAspectRatio="xMidYMid meet">

<g transform="translate(0.000000,290.000000) scale(0.100000,-0.100000)" fill="#11111" stroke="none">
<path d="M1359 2850 c-530 -48 -982 -383 -1184 -880 -301 -740 80 -1581 841 -1853 156 -56 263 -72 474 -72 179 1 204 3 304 28 334 84 621 271 814 530 68 91 118 167 109 167 -2 0 -33 -39 -69 -88 -196 -262 -471 -434 -796 -499 -130 -26 -357 -23 -489 5 -259 56 -458 164 -644 351 -155 155 -251 309 -318 509 -105 315 -77 681 74 976 380 742 1335 936 1976 401 72 -60 194 -197 238 -268 12 -20 25 -37 28 -37 7 0 -34 66 -94 151 -63 89 -199 227 -293 298 -151 113 -325 196 -509 242 -99 25 -296 51 -356 48 -11 -1 -59 -5 -106 -9z"/>
<path d="M1487 2585 c-302 -57 -602 -251 -765 -492 -72 -107 -67 -110 10 -8 58 76 176 189 251 238 265 176 625 224 935 126 113 -36 238 -99 320 -162 84 -65 214 -206 264 -287 l43 -70 113 0 c61 0 112 4 112 8 0 18 -102 177 -156 243 -147 180 -377 322 -623 386 -124 32 -381 41 -504 18z"/>
<path d="M2726 2097 c3 -10 9 -15 12 -12 3 3 0 11 -7 18 -10 9 -11 8 -5 -6z"/>
<path d="M2271 1787 c-13 -6 -32 -23 -42 -37 -10 -14 -57 -158 -104 -320 -47 -162 -89 -305 -95 -317 l-10 -23 119 0 119 0 10 33 c6 17 25 93 42 167 41 170 38 160 48 160 4 0 37 -46 72 -102 34 -57 83 -133 106 -169 61 -93 123 -119 198 -84 32 16 81 83 191 268 32 54 61 94 65 90 4 -4 26 -88 49 -185 l43 -178 120 0 c92 0 119 3 115 13 -2 6 -43 146 -91 309 -47 164 -92 309 -98 323 -19 42 -72 68 -124 62 -25 -2 -54 -13 -65 -23 -18 -16 -170 -251 -245 -380 l-21 -36 -109 179 c-59 98 -116 189 -127 203 -42 56 -111 76 -166 47z"/>
<path d="M1150 1742 c-19 -25 -50 -64 -69 -84 l-33 -38 320 0 c184 0 332 -4 346 -10 18 -6 26 -17 26 -34 0 -49 -9 -51 -365 -54 l-333 -4 -1 -214 -2 -215 363 3 c348 3 365 4 419 26 75 30 133 82 155 137 20 54 14 94 -23 147 -23 35 -24 40 -11 56 25 28 48 79 48 107 0 64 -54 141 -125 177 -82 43 -127 48 -410 48 l-270 -1 -35 -47z m590 -401 c30 -8 38 -42 14 -62 -14 -11 -64 -14 -253 -14 l-236 0 -3 43 -3 42 228 -1 c125 -1 239 -4 253 -8z"/>
<path d="M3538 1617 c95 -95 172 -178 172 -183 -1 -5 -72 -83 -160 -174 l-158 -165 131 -3 132 -3 122 128 121 128 122 -127 122 -128 135 0 135 0 -164 173 -165 172 170 175 170 175 -135 3 -135 3 -75 -78 c-41 -43 -98 -103 -127 -133 l-52 -55 -127 133 -127 133 -140 -1 -139 0 172 -173z"/>
<path d="M2514 913 c-68 -118 -212 -270 -321 -340 -397 -254 -892 -240 -1257 34 -74 55 -173 156 -244 248 -40 52 -6 -8 40 -70 221 -299 547 -475 913 -491 443 -20 852 195 1075 567 28 45 50 86 50 91 0 4 -51 8 -114 8 l-114 0 -28 -47z"/>
</g>
</svg>